<svg id="Layer_1" data-name="Layer 1" xmlns="http://www.w3.org/2000/svg" viewBox="0 0 1024 1024"><defs><style>.cls-1{fill:#3bc8ff;}.cls-2{fill:#138b37;}.cls-3{fill:#3faa34;}.cls-4,.cls-9{fill:none;}.cls-4{stroke:#fff;stroke-miterlimit:10;stroke-width:15px;}.cls-5{fill:#e85153;}.cls-6{fill:#afafae;}.cls-7{fill:#d03a40;}.cls-8{fill:#999a98;}.cls-10{fill:#ebebec;opacity:0.3;}.cls-11{fill:#024155;}.cls-12{fill:#00aee1;}</style></defs><rect class="cls-1" x="14.7" y="64.04" width="994.59" height="672.2" rx="19.97"/><path class="cls-2" d="M969.28,736.24H130.94V707.53Q307.07,538.81,483.34,370.1c34.59-33.06,94-32.34,127.46,1.72Q775.85,539.64,941,707.53C950.47,717.1,959.84,726.67,969.28,736.24Z"/><path class="cls-3" d="M796.67,736.24H15.46a.76.76,0,0,1-.76-.76V483.77l210-201.06c34.65-33.07,94.06-32.34,127.45,1.72q165.06,167.82,330.23,335.7Q739.58,678.15,796.67,736.24Z"/><rect class="cls-4" x="14.7" y="64.04" width="994.59" height="672.2" rx="19.31"/><rect class="cls-5" x="707.06" y="558.33" width="96.05" height="406.18" transform="translate(-285.42 502.09) rotate(-31.24)"/><path class="cls-6" d="M626.88,553.52a136.69,136.69,0,0,1-31.81,14.11l23.38,38.54,59-35.79-23.39-38.55A136.12,136.12,0,0,1,626.88,553.52Z"/><rect class="cls-7" x="765.52" y="541.98" width="33.03" height="406.18" transform="translate(-273.04 513.69) rotate(-31.24)"/><path class="cls-8" d="M639.26,545l21.52,35.47,16.68-10.12-23.39-38.54A135.91,135.91,0,0,1,639.26,545Z"/><path class="cls-6" d="M595.08,567.62l23.38,38.54,42.32-25.67L639.26,545a130,130,0,0,1-12.37,8.49c-2.81,1.7-5.65,3.28-8.52,4.77A136,136,0,0,1,595.08,567.62Z"/><path class="cls-9" d="M340.66,266.15c6.11,5.73,12.23,11.42,18.34,17.15"/><path class="cls-9" d="M623.48,530.28c5.25,4.93,10.52,9.81,15.78,14.74"/><path class="cls-10" d="M360.8,472.83a185.45,185.45,0,0,0,255,62.42c2.62-1.59,5.21-3.24,7.71-5,1.36-.94,2.7-1.86,4.06-2.83s2.62-1.88,3.9-2.84c.08-.05.17-.14.25-.19,1.1-.85,2.18-1.65,3.23-2.51,1.44-1.13,2.81-2.25,4.19-3.42a166.3,166.3,0,0,0,27.29-28.42c47.2-62.8,69.71-188.1-10.07-264.82-74.56-71.69-198.85-62.84-256.49-5.59-16,15.94-25,33.68-30.13,47.23A180.44,180.44,0,0,0,359,283.3,185.51,185.51,0,0,0,360.8,472.83Z"/><path class="cls-11" d="M339.85,485.54c52.52,86.58,157.61,121.7,249.47,89.23A211.45,211.45,0,0,0,663,530.06c93-86.74,94.28-246.75-32-333.58a185.85,185.85,0,0,0-130.57-30.75c-73.64,10.13-128.14,49.14-159.75,100.42A210.11,210.11,0,0,0,339.85,485.54Zm20.95-12.71A185.49,185.49,0,0,1,359,283.3a180.28,180.28,0,0,1,10.71-16.41c30.36-41.58,79.4-71.95,143.07-77.48a160.42,160.42,0,0,1,103.41,26.87C727.86,291.53,728.85,430.81,650,508.6q-5.22,5.13-10.89,9.89c-1.38,1.17-2.75,2.29-4.19,3.42-1,.86-2.12,1.69-3.23,2.51-.08.05-.17.14-.25.19-1.28,1-2.56,1.92-3.9,2.84s-2.68,1.92-4.06,2.83c-2.5,1.73-5.09,3.38-7.71,5a185.45,185.45,0,0,1-255-62.42Z"/><path class="cls-2" d="M96.82,693.27c-2.79.33-7.33,2.85-9.89,4-2.27,1-5.49,2.33-8.7,1.18-1.41-.5-3.68-1.89-3.76-3.66s2.13-3.34,6.53-6.62c1-.72,1.27-.91,1.78-1.29,2.33-1.71,8.23-6,8.41-12,.11-3.2-1.44-7.2-4.74-9a9.82,9.82,0,0,0-6.63-.8c-.68.13-2.54.55-5.73,2.87A28.54,28.54,0,0,0,65.68,677a22.48,22.48,0,0,0-3.47,10,20.35,20.35,0,0,0,1.38,9.2,17.25,17.25,0,0,0,5.14,7.12,17.45,17.45,0,0,0,6.43,3.17,22.14,22.14,0,0,0,8.3.69c6.39-.64,10.48-3.77,13.16-5.83,3.68-2.81,3.83-4.24,3.76-4.94A3.82,3.82,0,0,0,98,693.37,2.67,2.67,0,0,0,96.82,693.27Zm-26-6.25c-1.35-1,.79-7.26,5-10.58,1.3-1,3.91-2.77,4.95-2s-.29,4.48-.4,4.74a11.49,11.49,0,0,1-3,4.06C76.07,684.47,72,688,70.81,687Z"/><rect class="cls-2" x="66.66" y="644.58" width="5.86" height="17.04" rx="2.88" transform="translate(-237.31 72.42) rotate(-21.78)"/><rect class="cls-2" x="79.9" y="642.31" width="5.86" height="17.04" rx="2.88" transform="translate(93.96 -5.16) rotate(8.22)"/><rect class="cls-2" x="56.16" y="651.8" width="5.86" height="17.04" rx="2.88" transform="translate(614.4 1022.46) rotate(128.22)"/><rect class="cls-2" x="51.01" y="663.3" width="5.86" height="17.04" rx="2.88" transform="translate(724.61 738.57) rotate(100.27)"/><rect class="cls-2" x="91.56" y="647.1" width="5.86" height="17.04" rx="2.88" transform="translate(405.2 70.62) rotate(36.18)"/><path class="cls-12" d="M854.56,133a7.22,7.22,0,0,1-1.57-4.46h0a12.85,12.85,0,0,1,2.7-7.4h0a19.56,19.56,0,0,1,5.85-5.42h0a9.13,9.13,0,0,1,4.26-1.38h0a4.29,4.29,0,0,1,.81.06h0a7.85,7.85,0,0,1,4.76,2.34h0c.21.22.39.44.57.67h0c.12-1.43.27-3.2.41-5h0c.35-4.34.69-9.13.66-10.6h0a1.64,1.64,0,0,0,0-.26h0a10.63,10.63,0,0,1-.4-2.4h0a2.81,2.81,0,0,1,.32-1.46h0a1.78,1.78,0,0,1,1.53-.89h.06a3.59,3.59,0,0,1,3.64,3.56h0a3.72,3.72,0,0,1-.18,1.22h0v0h0a1.15,1.15,0,0,1,0,.14h0c0,.13-.06.32-.09.54h0c-.06.46-.14,1.08-.22,1.83h0c-.16,1.5-.34,3.5-.52,5.69h0c-.32,4-.61,8.68-.7,12.16h0a4.25,4.25,0,0,1,1.19.54h0a2.23,2.23,0,0,1,.86,1.22h0a4.08,4.08,0,0,1,.16,1h0a2.34,2.34,0,0,1-.45,1.45h0a2.67,2.67,0,0,1-1,.79h0a13.93,13.93,0,0,1-1.31.49h0a14.78,14.78,0,0,1,.25,2.41h0a6.14,6.14,0,0,1-.1,1.35h0a2.45,2.45,0,0,1-.69,1.33h0a1.79,1.79,0,0,1-1.15.46h0l-.24,0h0a3.83,3.83,0,0,1-1.82-.62h0a2.71,2.71,0,0,1-1-1.29h0a5.83,5.83,0,0,1-.17-.62h0c-.76.49-1.78,1.13-3,1.77h0c-2.52,1.35-5.68,2.77-8.63,2.83h-.06a5.69,5.69,0,0,1-4.71-2Zm6.06-10.46c-1.72,2-2.9,4.63-2.85,6.1h0a1.53,1.53,0,0,0,.39,1.14h0a1.8,1.8,0,0,0,1.42.5h0a12.15,12.15,0,0,0,5-1.83h0c1.76-1,3.64-2.22,5.44-3.35h0c-.08-.37-.2-.87-.37-1.42h0a10.87,10.87,0,0,0-1.68-3.57h0A2.7,2.7,0,0,0,866.4,119h0a2.86,2.86,0,0,0-.42,0h-.07c-1.43,0-3.62,1.49-5.29,3.53Zm22.86,7.18a20.55,20.55,0,0,1-2.73-6.41h0A53.11,53.11,0,0,1,879.19,113h0c0-.14,0-.27,0-.41h0a2.8,2.8,0,0,1,.5-1.78h0a1.93,1.93,0,0,1,1.54-.77h0a1.84,1.84,0,0,1,.41,0h0a2.76,2.76,0,0,1,2.07,1.32h0a3.31,3.31,0,0,1,.4,1.56h0v0c0,.43,0,.85,0,1.26h0a43.44,43.44,0,0,0,.77,8.09h0a10.58,10.58,0,0,0,1.76,4.45h0c.44.5.74.61,1.06.61h0a1.5,1.5,0,0,0,.69-.2h0a5.14,5.14,0,0,0,2.13-2.49h0a15.24,15.24,0,0,0,1.16-4h0a36.6,36.6,0,0,0,.39-6.28h0v-.18h0a3.17,3.17,0,0,1,.35-1.66h0a2.37,2.37,0,0,1,2.12-1.12h.17a2.2,2.2,0,0,1,1.49.6h0a3.06,3.06,0,0,1,.7,1h0a4.85,4.85,0,0,1,.32,1.29h0v.21c-.06.59-.18,3.13-.62,6h0a26.32,26.32,0,0,1-2.64,8.78h0a6.26,6.26,0,0,1-4.29,3.35h0a5,5,0,0,1-.85.07h0a6.4,6.4,0,0,1-5.31-3.1Zm20.37,4.45a2.63,2.63,0,0,1-.41,0h0a2.85,2.85,0,0,1-2-1.09h0A2.72,2.72,0,0,1,901,132h0l-.27-.07h0a2.44,2.44,0,0,1-1.48-1.09h0l0-.05,0-.06a2.37,2.37,0,0,1-.09-.3h0c0-.06,0-.1,0-.15h0a2.68,2.68,0,0,1,0-.34h0c0-.26,0-.62-.06-1.06h0c0-.88-.08-2.08-.1-3.45h0a90.83,90.83,0,0,1,.28-9.55h0a3.06,3.06,0,0,1-.76-1.65h0v0a1,1,0,0,1,0-.19h0a2.38,2.38,0,0,1,.7-1.6h0a3.94,3.94,0,0,1,.82-.7h0c0-.13.06-.3.1-.49h0c.13-.6.3-1.45.47-2.43h0a37.51,37.51,0,0,0,.63-6.46h0c0-.11,0-.21,0-.32h0a5.08,5.08,0,0,0-.21-.89h0a6.3,6.3,0,0,1-.28-1.57h0a2.32,2.32,0,0,1,.48-1.53h0a2.39,2.39,0,0,1,1.63-.82h0l.21,0h0a2.19,2.19,0,0,1,1.39.53h0a4,4,0,0,1,.89,1.12h0a7.47,7.47,0,0,1,.85,3.32h0c0,.11,0,.23,0,.34h0a18.33,18.33,0,0,1-.44,4.07h0c-.22,1.11-.49,2.35-.78,4.09h0a19.92,19.92,0,0,1,5.66.77h0a9.32,9.32,0,0,1,6,4.69h0a4.06,4.06,0,0,1,.4,1.73h0a8.3,8.3,0,0,1-1.34,4.14h0a27.27,27.27,0,0,1-3,4h0a76.76,76.76,0,0,1-6,6h0c-.35.31-.61.55-.65.6h0a3.28,3.28,0,0,0-.45.58h0a2.41,2.41,0,0,1-.71.76h0a1.91,1.91,0,0,1-.9.25h0Zm-.32-11.88a52.11,52.11,0,0,0,.38,5.74h0c.48-.38,1.05-.86,1.65-1.39h0a32.11,32.11,0,0,0,5.08-5.35h0a5.9,5.9,0,0,0,1.33-3.09h0a1.32,1.32,0,0,0-.14-.62h0a4.15,4.15,0,0,0-2.42-1.52h0a14.69,14.69,0,0,0-4.36-.58h0c-.32,0-.63,0-.93,0h0c-.06.34-.12.77-.2,1.27h0a41.68,41.68,0,0,0-.4,4.47h0c0,.35,0,.69,0,1Zm17.88,12.93a3.24,3.24,0,0,1-1.76-.6h0s0,0,0,0h0a2,2,0,0,1-.78-1.17h0a8.21,8.21,0,0,1-.26-1.39h0a38.58,38.58,0,0,1-.22-4h0c-.09-6.18.46-15.72.79-21.27h0c.17-2.82.27-5.22.38-7.09h0a21.23,21.23,0,0,1,.48-4.08h0a2,2,0,0,1,.47-.84h0v0a2.68,2.68,0,0,1,1.74-.78h0a3.16,3.16,0,0,1,2.21,1.1h0a2.44,2.44,0,0,1,.59,1h0a4.24,4.24,0,0,1,.17,1.2h0c0,1-.17,2.44-.44,4.91h0c-.28,2.46-.67,6-1.11,11.06h0c-.34,4-.48,8-.44,11.55h0c0,2.28.15,4.33.34,6h0v.05c0,.22,0,.5,0,.81h0a7.22,7.22,0,0,1-.11,1.5h0a2.94,2.94,0,0,1-.75,1.59h0a1.94,1.94,0,0,1-1.32.57h0Zm7.88-3.49.46-1-.47,1a7.27,7.27,0,0,1-3-3.07h0a10.89,10.89,0,0,1-1.37-5.12h0a10.68,10.68,0,0,1,.78-4.17h0a24.12,24.12,0,0,1,4.13-7.21h0a7.4,7.4,0,0,1,4.65-2.66h0c.13,0,.28,0,.42,0h0a7.46,7.46,0,0,1,4.51,1.66h0a9.78,9.78,0,0,1,3.46,6.12h0a13.41,13.41,0,0,1,.2,2.06h0a12.63,12.63,0,0,1-4,9.29h0a12,12,0,0,1-7.57,3.56h0a5,5,0,0,1-2.2-.43Zm6.08-17.23a2.38,2.38,0,0,0-.36.13h0a5.31,5.31,0,0,0-1.36.89h0c-1.12,1-2.59,2.82-3.71,6.46h0a4.86,4.86,0,0,0-.18,1.44h0a6.43,6.43,0,0,0,.56,2.56h0a2.36,2.36,0,0,0,1.27,1.33h0a1.29,1.29,0,0,0,.42.06h0a5.66,5.66,0,0,0,3-1.43h0a8.46,8.46,0,0,0,2.23-2.63h0v0a10.09,10.09,0,0,0,1.18-4.48h0a5.91,5.91,0,0,0-.65-2.65h0a3.62,3.62,0,0,0-.88-1.33h0a2.23,2.23,0,0,0-.9-.41h0l-.52.09h0l-.06,0Zm-.3-.26.08-.82-.08.82Zm-99.64,8.42a17.82,17.82,0,0,1,3.19-3.82,20.78,20.78,0,0,1,8.78-4.23l1.54.12a6.55,6.55,0,0,1,3.47,1.58c.93.85,1.21,2.16.83,4A6.69,6.69,0,0,1,850,124.6a15.38,15.38,0,0,1-5.86,2.17c-2.12.32-3.28.71-3.49,1.16s.05,1,.81,1.67,2.56,1.25,5.41,1.76a24.14,24.14,0,0,0,7.1.4,26.72,26.72,0,0,0,4.62-1c1.2-.4,2.52.86,3.18.76s1.15.3,1.45,1.2c-1.36,1.51-3.16,1.07-4.63,1.68a26,26,0,0,1-5.43,1.47,31.38,31.38,0,0,1-7.72.2l-1.8-.22a22,22,0,0,1-6.42-2.12,7.89,7.89,0,0,1-2.39-2.3,7.35,7.35,0,0,1-.92-3.59A13.2,13.2,0,0,1,835.43,122.63Zm4.9,1.55a17,17,0,0,0,5.75-1.87q1.51-1,1.44-2.07t-2.28-.21a7.63,7.63,0,0,0-3.1,1.83A22,22,0,0,0,840.33,124.18Z"/><path class="cls-12" d="M934.19,150.12A22.06,22.06,0,0,1,923,144.87h0a1.82,1.82,0,0,1-.62-1.28h0a1.71,1.71,0,0,1,0-.31h0a2.48,2.48,0,0,1,.71-1.4h0a2.68,2.68,0,0,1,1.45-.73h0a1.33,1.33,0,0,1,.28,0h0a2.12,2.12,0,0,1,1.43.57h0a13.68,13.68,0,0,0,3.09,2h0a23.58,23.58,0,0,0,3.57,1.41h0a25.11,25.11,0,0,0,5.58,1h0c.62,0,1.23.05,1.85,0h0a21.66,21.66,0,0,0,3.76-.43h0a22.1,22.1,0,0,0,4.78-1.53h0a10.91,10.91,0,0,0,4.86-5.56h0a29.26,29.26,0,0,0,1.36-9.16h0c-.31.43-.63.85-1,1.26h0a11.51,11.51,0,0,1-2,1.84h0a8,8,0,0,1-3.12,1.3h0a3.68,3.68,0,0,1-.57.06h0a3.3,3.3,0,0,1-1.47-.31h0a5.15,5.15,0,0,1-1.55-1.07h0a7.5,7.5,0,0,1-2.13-4.94h0c0-.19,0-.37,0-.55h0a12.94,12.94,0,0,1,1-5.16h0a32.59,32.59,0,0,1,2.66-5.24h0c.25-.4.71-1,1.41-2h0a21.51,21.51,0,0,1,2.5-2.72h0a14.14,14.14,0,0,1,3.14-2.23h0a5.08,5.08,0,0,1,2.24-.62h0a4.39,4.39,0,0,1,1.24.15h0a1.94,1.94,0,0,1,.68.31h0a.86.86,0,0,1,.32.61h0s0,.09,0,.13h0a2.12,2.12,0,0,1-.56,1.09h.18a3.84,3.84,0,0,1,.74.05h0c1.31.19,2.18.95,2.18,2.09h0v.19h0c-.15,3.07-.29,6.14-.44,9.22h0c-.14,3.08-.45,6.14-.76,9.2h0a34.59,34.59,0,0,1-1.52,7.73h0a15.51,15.51,0,0,1-1.54,3.28h0a14,14,0,0,1-4.26,4.1h0a21,21,0,0,1-5.62,2.47h0a26.33,26.33,0,0,1-6.36.93h0a31,31,0,0,1-6.29-.52Zm21.2-36.49a8.37,8.37,0,0,0-1,1.06h0l-1,1.3h0a14.45,14.45,0,0,0-1.7,2.6h0c-.45.89-.88,1.8-1.32,2.73h0a13.87,13.87,0,0,0-1.66,5.73h0v0h0a6.1,6.1,0,0,0,.23,1.61h0c.11.33.23.45.32.48h0l.08,0h0a1.64,1.64,0,0,0,.28-.24h0a8.33,8.33,0,0,0,.84-1.07h0a28.5,28.5,0,0,0,2.42-4.72h0a41.59,41.59,0,0,0,1.72-5h0q.69-2.5,1.39-5h0c-.21.19-.41.36-.57.52Z"/><path class="cls-12" d="M965.94,133.21a11.21,11.21,0,0,1-3.73-3.37h0a1.73,1.73,0,0,1-.33-1h0a1.82,1.82,0,0,1,.13-.68h0a3.11,3.11,0,0,1,1-1.34h0a2.91,2.91,0,0,1,1.48-.65h.19a1.55,1.55,0,0,1,1.31.67h0a7.78,7.78,0,0,0,2.25,2h0a1.83,1.83,0,0,0,.93.3h0a1.47,1.47,0,0,0,1.06-.58h0a.94.94,0,0,0,0-.09h0l.1-.24h0a2.68,2.68,0,0,0,.15-1.09h0v0h0a4.74,4.74,0,0,0-.41-1.67h0a5.51,5.51,0,0,0-1.66-2h0a16.72,16.72,0,0,0-1.42-1h0a6.59,6.59,0,0,1-1.43-1.25h0a5.28,5.28,0,0,1-1.29-3.35h0a5.94,5.94,0,0,1,.08-1.1h0a7.07,7.07,0,0,1,2.71-4.66h0a12.19,12.19,0,0,1,4.78-2.4h0a1.57,1.57,0,0,1,.37,0h0a1.41,1.41,0,0,1,1.1.47h0a1.63,1.63,0,0,1,.46,1.1h0c0,.11,0,.22,0,.34h0a2.9,2.9,0,0,1-1.78,2.2h0a7.69,7.69,0,0,0-1.34.82h0a6.14,6.14,0,0,0-1.26,1.23h0a2.61,2.61,0,0,0-.53,1.34h0a.45.45,0,0,0,0,.11h0a1.49,1.49,0,0,0,.65,1.08h0c.51.43,1,.83,1.6,1.21h0a8.18,8.18,0,0,1,1.59,1.42h0a18.51,18.51,0,0,1,1.63,2.27h0a6.93,6.93,0,0,1,1,2.71h0c0,.31.06.61.07.92h0a8.24,8.24,0,0,1-.79,3.71h0a5.78,5.78,0,0,1-3.54,3.08h0a6.79,6.79,0,0,1-2,.38h0a5.82,5.82,0,0,1-3-.8Zm4.57-4.5v0Zm-.14-.11-.08-.09.08.09Z"/><path class="cls-12" d="M960.78,101.54c.34-.53.72-1,1.48-1a1.16,1.16,0,0,1,1.07,1.23,2.5,2.5,0,0,1-.43,1.06L961,106c-.34.53-.72,1-1.48,1a1.16,1.16,0,0,1-1.07-1.23,2.37,2.37,0,0,1,.43-1.06Z"/><path class="cls-12" d="M953.73,101.12a1.57,1.57,0,0,1,.61-1.66,1.15,1.15,0,0,1,1.59.33,2.42,2.42,0,0,1,.3,1.11l.3,3.64a1.57,1.57,0,0,1-.61,1.66,1.15,1.15,0,0,1-1.59-.33,2.42,2.42,0,0,1-.3-1.11Z"/><path class="cls-12" d="M947.92,103.18a1.55,1.55,0,0,1-.09-1.76,1.15,1.15,0,0,1,1.6-.32,2.4,2.4,0,0,1,.7.9l1.69,3.24a1.55,1.55,0,0,1,.08,1.76,1.14,1.14,0,0,1-1.59.32,2.4,2.4,0,0,1-.7-.9Z"/><path class="cls-12" d="M947.85,107.88c.55.33,1.06.68,1,1.45a1.14,1.14,0,0,1-1.18,1.12,2.35,2.35,0,0,1-1.07-.37l-3.16-1.82c-.54-.32-1.06-.67-1-1.44a1.16,1.16,0,0,1,1.17-1.13,2.38,2.38,0,0,1,1.08.38Z"/><path class="cls-12" d="M965.65,105.44a1.53,1.53,0,0,1,1.74-.28,1.15,1.15,0,0,1,.48,1.56,2.45,2.45,0,0,1-.81.8l-3,2a1.55,1.55,0,0,1-1.74.27,1.16,1.16,0,0,1-.48-1.56,2.3,2.3,0,0,1,.82-.79Z"/></svg>